<svg
  xmlns="http://www.w3.org/2000/svg"
  xmlns:xlink="http://www.w3.org/1999/xlink"
  aria-hidden="true"
  role="img"
  width="64"
  height="64"
  viewBox="-2.0 10 80 80"
>
  <style>
    path {
      --wordle-correct-color: #6aaa64;
      --wordle-present-color: #c9b458;
      --wordle-absent-color: #787c7e;
    }
  </style>

  <rect x="-2.0" y="10" width="100%" height="100%" rx="25%" fill="#fff" />

  <path
    d="M15.41 46.08C15.41 40.39 19.37 36.79 25.63 36.79C31.90 36.79 35.86 40.39 35.86 46.08C35.86 51.77 31.90 55.37 25.63 55.37C19.37 55.37 15.41 51.77 15.41 46.08ZM9.14 46.08C9.14 54.65 15.70 60.55 25.63 60.55C35.57 60.55 42.12 54.65 42.12 46.08C42.12 37.51 35.57 31.61 25.63 31.61C15.70 31.61 9.14 37.51 9.14 46.08ZM43.63 28.15C45.07 28.15 45.86 27.14 45.86 25.56C45.86 23.98 45.07 22.97 43.63 22.97L28.73 22.97L28.73 16.49C28.73 15.05 27.50 14.11 25.63 14.11C23.76 14.11 22.54 15.05 22.54 16.49L22.54 22.97L7.20 22.97C5.76 22.97 4.97 23.98 4.97 25.56C4.97 27.14 5.76 28.15 7.20 28.15Z"
    fill="var(--wordle-correct-color)"
  />
  <path
    d="M68.33 42.84C69.77 42.84 70.56 41.83 70.56 40.25C70.56 38.66 69.77 37.66 68.33 37.66L59.04 37.66L59.04 19.08C59.04 17.64 57.82 16.70 55.94 16.70C54.07 16.70 52.85 17.64 52.85 19.08L52.85 63.29C52.85 64.73 54.07 65.66 55.94 65.66C57.82 65.66 59.04 64.73 59.04 63.29L59.04 42.84Z"
    fill="var(--wordle-present-color)"
  />
  <path
    d="M37.80 85.61C45.94 85.61 53.50 84.24 59.11 81.94C60.55 81.36 60.91 79.92 60.48 78.48C60.05 76.97 58.61 76.32 56.95 76.97C52.13 78.91 45.07 80.28 37.80 80.28C26.86 80.28 23.83 78.48 23.83 73.73C23.83 71.50 24.12 68.98 24.48 67.18C24.77 65.81 23.90 64.51 22.03 64.15C20.23 63.79 18.65 64.37 18.29 65.81C17.71 67.97 17.42 71.06 17.42 73.73C17.42 82.22 22.68 85.61 37.80 85.61Z"
    fill="var(--wordle-absent-color)"
  />
</svg>
