<svg
  xmlns="http://www.w3.org/2000/svg"
  xmlns:xlink="http://www.w3.org/1999/xlink"
  width="140.08298"
  height="72.248932"
  viewBox="-5.2 6.86 188.2365 97.0845"
  aria-hidden="true"
  role="img"
>
  <style>
    svg {
      --border-color: #afafaf;
      --wordle-correct-color: #6aaa64;
      --wordle-present-color: #c9b458;
      --wordle-absent-color: #787c7e;
      --wordle-exact-color: #fff;
      --wordle-exact-background-color: #6aaa64;
    }

    @media (prefers-color-scheme: dark) {
      svg {
        --border-color: #424242;
        --wordle-correct-color: #538d4e;
        --wordle-present-color: #b59f3b;
        --wordle-absent-color: #787c7e;
        --wordle-exact-color: #303030;
        --wordle-exact-background-color: #538d4e;
      }
    }
  </style>

  <rect
     style="fill:var(--wordle-exact-background-color);fill-opacity:1;stroke:var(--border-color);stroke-width:4.03125"
     id="rect2006"
     width="82.19175"
     height="82.19175"
     x="2.190625"
     y="14.250625"
     ry="15.761742"
  />

  <path
     d="m 21.738232,51.708604 c 0,-5.476089 3.811128,-8.940751 9.835789,-8.940751 6.034286,0 9.845413,3.464662 9.845413,8.940751 0,5.47609 -3.811127,8.940752 -9.845413,8.940752 -6.024661,0 -9.835789,-3.464662 -9.835789,-8.940752 z m -6.034285,0 c 0,8.24782 6.313383,13.926015 15.870074,13.926015 9.566316,0 15.870075,-5.678195 15.870075,-13.926015 0,-8.247819 -6.303759,-13.926014 -15.870075,-13.926014 -9.556691,0 -15.870074,5.678195 -15.870074,13.926014 z M 48.897329,34.452666 c 1.385864,0 2.146165,-0.97203 2.146165,-2.492632 0,-1.520601 -0.760301,-2.492631 -2.146165,-2.492631 H 34.55748 v -6.236391 c 0,-1.385865 -1.183759,-2.290526 -2.983459,-2.290526 -1.799699,0 -2.973834,0.904661 -2.973834,2.290526 v 6.236391 H 13.836879 c -1.385865,0 -2.146165,0.97203 -2.146165,2.492631 0,1.520602 0.7603,2.492632 2.146165,2.492632 z"
     fill="var(--wordle-exact-color)"
  />
  <path
     d="m 72.351162,48.744394 c 1.924812,0 2.887218,-0.962406 2.887218,-2.887218 0,-0.962406 -0.962406,-1.924812 -2.887218,-1.924812 H 63.689508 V 25.646651 c 0,-0.962406 -0.962406,-1.924812 -2.887218,-1.924812 -1.924812,0 -2.887217,0.962406 -2.887217,1.924812 v 42.345862 c 0,1.924812 0.962405,2.887218 2.887217,2.887218 1.924812,0 2.887218,-0.962406 2.887218,-2.887218 V 48.744394 Z"
     fill="var(--wordle-exact-color)"
  />
  <path
     d="m 43.478983,90.127849 c 7.699248,0 14.43609,-1.924811 20.210525,-3.849622 1.924812,-0.962406 1.924812,-1.924812 0.962406,-3.849624 0,-0.962406 -0.962406,-1.924812 -2.887218,-0.962406 -4.812029,1.924812 -11.548871,2.887218 -18.285713,2.887218 -10.586465,0 -13.473683,-1.924812 -13.473683,-5.774436 0,-2.887218 0,-4.81203 0,-6.736842 0.962406,-0.962406 0,-1.924812 -1.924812,-2.887218 -1.924812,0 -2.887218,0 -3.849624,1.924812 0,1.924812 -0.962406,4.81203 -0.962406,7.699248 0,7.699248 5.774436,11.54887 20.210525,11.54887 z"
     fill="var(--wordle-exact-color)"
  />

  <rect
     style="fill:none;stroke:var(--border-color);stroke-width:4.03125"
     width="82.19175"
     height="82.19175"
     x="93.454132"
     y="14.362124"
     ry="15.761742"
  />

  <path
     d="m 153.56318,27.350108 c 1.38586,0 2.14616,-0.97203 2.14616,-2.492632 0,-1.530225 -0.7603,-2.502255 -2.14616,-2.502255 h -40.53654 c -1.38587,0 -2.15579,0.97203 -2.15579,2.502255 0,1.520602 0.76992,2.492632 2.15579,2.492632 h 0.69293 c -0.90466,1.799699 -1.46286,4.157593 -1.46286,6.515488 0,7.275789 3.74376,9.970526 22.38557,9.970526 7.62225,0 15.17714,-0.895038 20.22977,-2.280902 1.59759,-0.490827 1.94406,-1.7997 1.66496,-3.050827 -0.2791,-1.251128 -1.17413,-2.078797 -2.90646,-1.664963 -5.12963,1.251128 -11.84722,2.011429 -18.98827,2.011429 -13.64692,0 -16.28391,-1.453233 -16.28391,-4.985263 0,-2.223158 0.41383,-4.581052 1.0394,-6.515488 z"
     fill="var(--wordle-correct-color)"
  />
  <path
     d="m 106.46302,53.710408 h 56.78196 c 0.96241,0 1.92481,-0.962406 1.92481,-2.887218 0,-0.962407 -0.9624,-1.924813 -1.92481,-1.924813 h -56.78196 c -1.92481,0 -2.88723,0.962406 -2.88723,1.924813 0,1.924812 0.96242,2.887218 2.88723,2.887218 z"
     fill="var(--wordle-present-color)"
  />
  <path
     d="m 113.19987,61.409656 c 0,1.924812 0,2.887217 1.92481,2.887217 h 33.68421 c 0.96241,0 1.92481,0.962406 1.92481,1.924812 v 2.887218 c 0,0.962405 -0.9624,1.924811 -1.92481,1.924811 h -34.64661 c -1.92481,0 -2.88722,0.962406 -2.88722,1.924812 0,1.924812 0.96241,2.887218 2.88722,2.887218 v 0 c 0,0.962406 0,2.887218 0,4.81203 0,4.812025 2.88721,7.699243 21.17293,7.699243 7.69925,0 15.39849,-0.962406 21.17293,-1.924812 0.96241,-0.962406 1.92481,-1.924812 0.96241,-2.887218 0,-1.924807 -0.96241,-2.887213 -1.92482,-1.924807 -5.77443,0.962406 -13.47368,1.924807 -20.21052,1.924807 -13.47369,0 -15.3985,-0.962401 -15.3985,-4.812025 0,-0.962406 0,-1.924812 0,-2.887218 h 30.79699 c 3.84963,0 5.77444,-1.924812 5.77444,-5.774436 v -5.774435 c 0,-2.887217 -1.92481,-4.812029 -5.77444,-4.812029 h -35.60902 c -1.92481,0 -1.92481,0.962406 -1.92481,1.924812 z"
     fill="var(--wordle-absent-color)"
  />
</svg>
